<?xml version="1.0" encoding="utf-8"?>
<!-- Generator: Adobe Illustrator 19.0.0, SVG Export Plug-In . SVG Version: 6.00 Build 0)  -->
<svg version="1.1" id="Layer_1" xmlns="http://www.w3.org/2000/svg" xmlns:xlink="http://www.w3.org/1999/xlink" x="0px" y="0px"
	 viewBox="21 -22.3 100 100" style="enable-background:new 21 -22.3 100 100;" xml:space="preserve">
<style type="text/css">
	.st0{fill:#52923C;}
	.st1{fill:#FFFFFF;}
</style>
<g id="Layer_1_1_">
	<path id="XMLID_1_" class="st0" d="M83.4,75.6l0.6-0.2l1.2-0.3l0.6-0.2h0.3c0.6,0,1.3,0,2.3-0.5c0.1-0.1,0.3-0.1,0.5-0.2
		c0.4-0.2,0.6-0.5,0.9-0.6l0.4-0.3h0.1h0.1h0.1c3.6-1.4,8.4-4.2,11.2-6.8c1.4-1,2.5-2.3,3.6-3.3l0.4-0.4c0.6-0.3,1.3-0.6,1.9-1.3
		l0.2-0.2l0.1-0.2l0.6-0.7c0.4-0.5,0.6-0.6,0.6-0.6c-0.1,0,2.5-2.7,2.3-2.7c0.5-1.4-1.5-1-1.2-2.3l-1.4,2.2
		c-0.3,0.6-1.3,1.2-0.4,1.5c-0.9,0-1.8,1.1-2.7,2.3c-0.6,0.6-1.3,0.7-1.8,1.1c-3.5,3.9-10.5,8.7-15.4,10.2c-1.1,0.3-1.4,0.8-2.1,1.2
		c-1.1,0.6-1.7,0-2.9,0.3c-0.9,0.6-3.5,0.4-3.2,1.6c-0.5-0.9-2.5,0.2-3.2-0.3c-3,0.5-4.5,0.4-6.9,0.4c-1.5-0.3-1.7,0.6-2.8,0.6
		c-0.5-1.2-1.7-0.6-3.1-0.8c-1-0.2-1.4-0.7-2.3-0.8c-12.2-2.7-18-5.4-27.8-15.5c-3.9-5.7-9.2-13.4-10.5-22.5c-0.2-1.3-0.5-2.5-1-3.4
		c0.4-1.1,0.1-3,0.3-4.4c-0.6,0.2-1.3,0.5-1.8,0.8c0.1,0.9,0.2,1.7,0.3,2.5c-0.2,0.9,0,1.7,0.1,2.6c0.1,0.5,0.2,1.2,0.1,1.5
		l-0.4,1.2l0.6,1c0.2,0.2,0.4,0.6,0.6,1.7c0.1,0.3,0.2,0.6,0.2,0.6c0.8,4.4,2.8,8.5,5,12.1c2.3,3.9,5.1,7,7.2,9.8l0.1,0.1l0.1,0.1
		c10.2,9.3,16.2,12.1,29,14.1c0.1,0,0.2,0.1,0.4,0.2c0.5,0.2,1.1,0.6,1.9,0.6h0.4l1-0.1l0.4,0.6h1.7c1.1,0,1.8-0.4,2.2-0.6l0.1-0.1
		h0.1h0.2c0.7,0,1.4,0,1.9-0.1c1.3,0,2.6-0.1,4.5-0.5l0,0c0.7,0.1,1.6,0,2.1-0.1l0.6-0.1 M48.3-12.9c-0.4,0.3-0.6,0.3-1,0.3
		c0.6,0.5,0.1,0.7,0.1,1.1c-2.9,1.8-5.6,4-8,6.3c-0.1,0-0.2,0-0.4,0.1c-0.4,0.2-0.6,0.5-0.6,0.6l-0.5-0.3l-0.5-0.4
		c-1.6,2-3.4,3.8-5.3,6.5c-0.1,0.6-0.4,1.3-0.6,1.9c-1.7,1.8-3.6,6.4-5.1,10.1c-0.3,0.4-0.5,0.7-0.6,1c0.6-2.4,1.5-4.9,2.2-7.2
		c1.2-1.2,1-2,2.2-2.8c0.1-1.2,1.2-2.8,1.2-4c0.6-0.6,1.5-1.1,1.4-2c0.6-0.7,1.4-1.3,2-1.9c1.6-1.7,1.7-2.9,3.3-3.4
		c0.8-0.6,0.5-1.2,1.5-1.9c1.7-1.1,3.6-1.9,4.7-4c0.2,0.5,0.6,0.3,0.9,0.1c1-1.2,1.7-1,3.1-2.1c1.3-1.4,2.9-1.3,4-2.6h2.3
		c2.5-1.1,5.2-1.8,7.7-2.6c1.5-0.2,2.3,0.5,4.1-0.2c1.1-0.6,0.4,1,1.1,0.8c1.2-0.2-0.8-0.9,0.2-0.9c1.6-0.1,3.3-0.6,4.4,0
		c0.8-0.2,2.5,0.4,2.8-0.3c0.6,0.5,1.4,0.6,2.3,0.7c2.4,0.4,5.1,0.9,7.7,1.3c0.8,0.6,2.5,0.8,3,1.6c1.2-0.2,2.8,0.7,4.2,1.3
		c1.8,0.7,2.9,2.4,5,2.9c1,0.4,0.7,1.1,1.8,1.6c0.7,0.5,1.2,0.1,0.9,1c0.7,0.4,1.4,0.6,1.9,0.3c0.3,1.7,2.3,1.9,3,3.8
		c1.6,1.4,3,3.4,4.4,4.3c-0.1,1,2.2,2.6,1.6,3.5c1,0.8,1.7,1.6,2.2,2.2c0.1,1.6,0.9,1.9,1.3,3.6c2,3.7,3.1,7.7,3.6,10.9
		c0.1,0.6,0.5,0.6,0.5,0.9c0.1,1.2,0,2.4,0,3.5c0.1,1.7,0.2,4,0.1,5.8c0,1,0.3,2.1,0.3,3.1c-0.1,1.1-0.4,2-0.6,3
		c-0.2,0.7-0.1,1.3,0.1,1.7c-0.6,0.9-0.8,2.5-1.1,4c-1.2,2-1.6,5.7-3,6.3c0.2,1.7-0.5,2.8-1.8,4c-0.9,0.9,0.2,1.2-0.5,2.1
		c-0.5-0.5-0.7,0.2-1,0.6l-1.3,2.1c0.3,0.1,0.7,0.4,0.9,1c0.2,0.7-0.1,1.4-0.2,1.6l0.1-0.2l0.3-0.4l0.2-0.3l1.6-1.7
		c0.6-0.6,1-1.3,1.6-1.9l0.3-0.5c0.4-0.7,0.5-1.4,0.5-1.8c0.6-0.6,1.1-1.4,1.5-2.2c0.3-0.6,0.4-1.2,0.5-1.8c0.7-0.8,1.1-2,1.5-3.2
		c0.3-0.9,0.7-2,1-2.6l0.2-0.4l0.1-0.4l0.2-0.7l0.2-0.8c0.3-1.1,0.4-1.5,0.5-1.7l0.7-1l-0.6-1.2V35l0.1-1c0.2-0.7,0.4-1.5,0.5-2.5
		c0-0.7-0.1-1.4-0.2-1.9l-0.1-1.1c0.1-1,0.1-2.1,0-3.2c0-0.9-0.1-1.8-0.1-2.6c0-0.4,0.1-0.9,0.1-1.5v-1.8v-0.3v-0.2
		c-0.1-0.6-0.3-0.9-0.6-1.2c-0.5-2.4-1-5.4-2.3-8.3c-0.4-0.7-0.6-1.6-1-2.3c-0.3-0.9-0.6-1.5-0.8-2c-0.3-0.5-0.3-0.6-0.3-0.8V3.6
		L115.2,3l-0.5-0.5c-0.3-0.4-0.6-0.7-1-1.1c-0.2-0.9-0.7-1.7-1.1-2.3l-0.2-0.3l-0.1-0.1l0.1-1l-1.3-0.8c-0.3-0.2-0.7-0.6-1.4-1.4
		l-0.8-0.9L108-6.3l-0.6-0.3c-0.5-0.8-1-1.6-1.6-2l-0.3-0.2L105.4-9c-0.3-0.3-0.4-0.4-0.4-0.4l0,0c-0.8-0.7-1.7-1.6-2.6-2.2
		l-0.3-0.2c-0.4-0.3-0.7-0.4-1-0.5l-0.2-0.1l0,0l0,0c-0.2-0.3-0.6-0.8-1.2-1.3l-0.6-0.4H99h-0.1l-0.8-0.4c-0.5-0.3-1-0.6-1.6-1.1
		c-0.6-0.5-1.3-1-2.1-1.4l-0.2-0.1l-0.6-0.4l-0.3-0.1l-0.6-0.3c-0.7-0.4-1.6-0.6-2.3-0.8c-0.6-0.4-1.2-0.6-1.7-0.8
		c-0.3-0.1-0.6-0.3-0.8-0.4L87.3-20l-0.5-0.1c-1.1-0.3-2.3-0.4-3.5-0.6c-1.2-0.3-2.5-0.6-3.9-0.8c-0.4-0.1-0.8-0.2-0.9-0.2h-0.1
		c-1.1-0.2-2.2-0.5-3.3-0.6h-0.6h-0.2c-0.9-0.2-1.9-0.3-2.9-0.3h-0.8h-0.3l-0.6,0.1h-0.1l-0.1-0.1l-0.9,0.1c-0.3,0-0.6,0.1-1,0.3
		h-0.3c-0.3,0-0.6,0-1-0.1c-0.6-0.2-1.3-0.2-2.4-0.1c-2.6,0.4-5.1,1.2-7.5,1.9h-0.6h-1.2h-1.1l-0.7,0.7c-0.1,0.1-0.1,0.1-0.3,0.2
		l-0.7,0.3c-0.4,0.1-0.8,0.4-1.2,0.6c-0.6,0.3-1,0.6-1.5,1H49l-1,0.5l-0.3,0.1c-1.1,0.5-2.2,1.2-3.3,1.7c-0.4,0.6-0.7,0.9-1.3,1.3
		c-0.7,0.6-1.7,1-2.6,1.5L39.7-12c-0.6,0.4-0.8,0.9-1,1.3c-0.8,0.4-1.4,0.9-1.7,1.3c-0.3,0.3-0.5,0.6-0.8,0.9s-0.5,0.6-0.7,0.9
		l-0.3,0.3l-0.8,0.6l-1.3,1l-0.8,0.8l0.1,0.6l0,0l-0.6,0.5l-0.7,0.7L31-2.2c0,0.2-0.4,0.7-0.6,1.1S30-0.3,29.8,0.2
		c-0.6,0.5-0.8,0.9-1.1,1.3S28.3,2.1,28,2.4l-0.4,0.4l-0.3,0.6c-0.4,1.2-0.9,2.3-1.5,3.6c-1.1,2.9-2.2,6-3,8.9
		c-0.6,1.8-0.7,3.8-1.1,5.6l-0.1,0.6l0.3,0.6c0.2,0.5,0.7,1.4,1.8,1.6c0,0,0,0,0.1,0.1c0.1-2.1,0.5-4.2,0.9-6.3
		c0.1,0.7,0.2,1.6,0.3,2.3c-0.3,1.5-0.1,2.5-0.2,4c0.6,0.6,0.4,1.9,0.7,2.6c0,0.1,0,0.1,0,0.2c0,1,0,1.9,0.1,2.9
		c-0.7,0.8-1.1,2.2-1.4,3.4c0.2,0.1,0.4,0,0.5,0.3c-0.3,0.5,0.3,1.1,0.3,2.1c0.4,0.7,0.2,0.9,0.6,1.6c-0.2,1.3,0.6,2.1,0.7,3.5
		c0.3,2.1,0.9,3.3,1.3,5.2c0.4-0.1,0.6,0.3,0.8,0.8c0.9,2.2,1.6,3.1,3,5.2c0.7,1.8,1.4,2.3,2.1,4.1c0.5,0.7,0.8,0.6,1.3,1.5
		c0.6,0.6,0.5,1,0.7,1.5c1.7,1.6,3.5,2.9,5.4,4.8c0.6,0.4,1.3,0.6,2.3,1.1c0.8,0,0.2,0.6,0.9,1c0.7-0.7,2.3,0.6,3.4,0.8
		c0.6,0.6,2.1,1,2.2,1.6c0.8,0.5,1.1-0.1,1.9,0.4c2.2,1.2,3.1,1.4,5.3,2.4c0.6,0.5,1.1-0.5,1.1,0.1c0.5,0.6,0.6-0.2,1.4,0.2
		c0.8,0.2,0.5,0.7,1.1,1c0.4-0.1,0.3-0.6,0.9-0.4c1.1,0.4,1.6,0,2.7,0.4c0.9,0,0.5,0.6,0.9,0.8c0.6-0.6,3.3,0.4,4.3-0.1
		c0.3,0.1,0.5,0.3,0.9,0.3c-0.2,0.3,0,0.6,0.6,0.6c0-0.2,0-0.4,0.3-0.4V73c0.4-0.1,0.7-0.1,1.1-0.2c-0.2-0.2-0.4-0.4-0.5-0.6
		c6.6-0.1,13-1.7,18.7-4.3c2.1-0.2,4,0.1,6.5-1.4c1.3-0.9,1.9-2,2.7-2.9c1-0.6,1.7-1.3,1.9-1.9c0.4-0.1,0.9-0.5,1.3-0.6
		c-0.1-1,2.5-2.3,2.8-3.4c0.4-0.6,0.6-0.2,1.1-0.8c0.5-1,0.5-0.9,1.1-1.9c2.1-2.5,3.4-5.6,4.9-8c0-0.4,0.3-1,0.3-1.4
		c1.6-1,0.7-3,2.1-3.8c0.2-1.7,0.6-2.6,1.1-4.5c0.1-0.3,0.3-0.6,0.6-0.4c0.1-0.7-0.5-1.2-0.4-2c0.5-1.1-0.1-1.4,0-2.2
		c0.2-0.8,0.3-1.7,0.4-2.7c-0.3-0.9-0.1-1.4-0.1-2.5c0.3-0.1,0.5-0.3,0.3-0.7h-0.3c0-0.6,0-1.3,0-1.9c1.2-2.8-0.4-6.2-1.2-8.6
		c-0.1,0-0.2-0.1-0.3-0.1c-0.2-0.6-0.3-1.2-0.5-1.7c0-0.3,0-0.5,0.3-0.6c-0.3-2-1.1-3-1.7-4.5c-0.1,0.1-0.1,0.1-0.2,0.1
		c-0.4-0.8-0.7-1.7-1.1-2.5c-0.3-1.4-0.7-2.9-1.6-4.1L109.8,4c-2.2-3.7-4.9-7-7.9-9.8l0.3-0.7c-1.4-1.5-3-2.6-5-3.6
		c-4-3.2-8.5-4.2-13-6.7c-1.5-0.2-4-1.3-5.3-1.9c-0.1,0.4-0.4,0.4-0.9,0.3c-1,0-0.6-0.6-1.5-0.7c-1.3,0.2-3.3,0-4.9,0
		c-0.5,0.2-0.7,0.5-1.4,0.6c-2.2,0.1-4.3,0-5.9-0.2c-1.8,0.1-3.9,0.6-5.3,0.6c-2.5,1-4.4,1.3-7.1,2.8c-0.6,0.2-1.5,0.6-2.2,0.3
		l-0.1,0.2"/>
	<g>
		<polygon class="st1" points="41.7,28.5 39.8,11 35.7,15.3 35.3,11.1 39.2,6.7 43.3,6.2 45.7,28 		"/>
		<polygon class="st1" points="41.7,28.5 42,28.5 39.9,10.4 35.9,14.9 35.4,11.1 39.3,6.9 43,6.5 45.5,27.8 41.7,28.3 41.7,28.5 
			42,28.5 41.7,28.5 41.7,28.7 45.9,28.2 43.4,6 39.1,6.5 35,11 35.5,15.9 39.6,11.5 41.5,28.7 41.7,28.7 		"/>
		<path class="st1" d="M63.1,19.6c0.1,1,0,2-0.2,2.9c-0.3,0.8-0.6,1.6-1.2,2.2c-0.6,0.6-1.2,1.1-1.9,1.5s-1.6,0.6-2.5,0.7
			s-1.7,0.1-2.6-0.2c-0.8-0.2-1.6-0.6-2.3-1c-0.6-0.5-1.2-1.1-1.7-1.8c-0.5-0.7-0.7-1.7-0.8-2.7l-1-9.2c-0.1-1,0-2,0.2-2.9
			c0.3-0.8,0.6-1.6,1.2-2.2s1.2-1.1,1.9-1.5s1.6-0.6,2.5-0.7s1.7-0.1,2.6,0.2c0.8,0.2,1.6,0.6,2.3,1c0.6,0.5,1.2,1.1,1.7,1.8
			s0.7,1.7,0.8,2.7L63.1,19.6z M58.2,11c-0.1-0.9-0.5-1.7-1-2.1s-1.2-0.6-2-0.6c-0.7,0.1-1.4,0.5-1.8,1c-0.5,0.6-0.6,1.4-0.5,2.3
			l1,9.1c0.1,0.9,0.5,1.7,1,2.1c0.6,0.5,1.2,0.6,2,0.6c0.7-0.1,1.4-0.5,1.8-1s0.6-1.3,0.5-2.2L58.2,11z"/>
		<path class="st1" d="M63.1,19.6h-0.2c0.1,1,0,1.9-0.2,2.8c-0.3,0.8-0.6,1.6-1.2,2.1c-0.6,0.6-1.2,1.1-1.9,1.5s-1.6,0.6-2.4,0.7
			c-0.9,0.1-1.7,0.1-2.5-0.1s-1.6-0.6-2.2-1c-0.6-0.5-1.2-1.1-1.7-1.8s-0.7-1.6-0.8-2.7l-1-9.2c-0.1-1,0-1.9,0.2-2.8
			c0.3-0.8,0.6-1.6,1.2-2.1c0.6-0.6,1.2-1.1,1.9-1.5s1.6-0.6,2.4-0.7c0.8-0.1,1.7-0.1,2.5,0.2c0.8,0.2,1.6,0.6,2.2,1
			s1.2,1.1,1.6,1.8c0.5,0.7,0.7,1.6,0.8,2.7l1,9.2L63.1,19.6h0.2l-1-9.2c-0.1-1.1-0.4-2-0.9-2.8s-1-1.5-1.7-1.9
			c-0.6-0.5-1.5-0.8-2.3-1s-1.7-0.3-2.7-0.2c-0.9,0.1-1.7,0.4-2.6,0.7c-0.8,0.4-1.5,0.9-2,1.6c-0.6,0.6-1,1.4-1.3,2.3
			c-0.3,0.9-0.4,1.8-0.3,2.9l1,9.2c0.1,1.1,0.4,2,0.9,2.8s1,1.5,1.7,1.9c0.7,0.5,1.5,0.8,2.3,1s1.7,0.3,2.7,0.2s1.7-0.4,2.6-0.7
			c0.8-0.4,1.5-0.9,2-1.6s1-1.4,1.3-2.3s0.4-1.8,0.3-2.9H63.1z M58.2,11h0.2c-0.1-0.5-0.2-0.9-0.4-1.3S57.5,9,57.3,8.8
			c-0.3-0.3-0.6-0.5-1-0.6s-0.7-0.1-1.2-0.1c-0.4,0.1-0.8,0.2-1.1,0.4c-0.4,0.2-0.6,0.5-0.8,0.7c-0.3,0.3-0.4,0.6-0.5,1.1
			c-0.1,0.4-0.1,0.8-0.1,1.3l1,9.1c0.1,0.5,0.2,0.9,0.4,1.3s0.5,0.6,0.7,0.9c0.3,0.3,0.6,0.5,1,0.6s0.7,0.1,1.2,0.1
			c0.4-0.1,0.8-0.2,1.1-0.4c0.4-0.2,0.6-0.5,0.8-0.7c0.3-0.3,0.4-0.6,0.5-1.1c0.1-0.4,0.1-0.8,0.1-1.3l-1-9.1H58.2H58l1,9.1
			c0.1,0.5,0,0.8,0,1.2c-0.1,0.4-0.2,0.6-0.4,0.9s-0.5,0.5-0.7,0.6c-0.3,0.2-0.6,0.3-0.9,0.3s-0.7,0-1-0.1s-0.6-0.3-0.8-0.5
			c-0.3-0.2-0.5-0.5-0.6-0.8c-0.2-0.3-0.3-0.7-0.3-1.1l-1-9.1c-0.1-0.5,0-0.8,0-1.2c0.1-0.4,0.2-0.6,0.5-0.9
			c0.2-0.3,0.5-0.5,0.7-0.6c0.3-0.2,0.6-0.3,0.9-0.3s0.7,0,1,0.1s0.6,0.3,0.8,0.5c0.3,0.2,0.5,0.5,0.6,0.8
			C58,10.3,58.1,10.6,58.2,11L58.2,11z"/>
		<path class="st1" d="M79.8,17.8c0.1,1,0,2-0.2,2.9c-0.3,0.8-0.6,1.6-1.2,2.2c-0.6,0.6-1.2,1.1-1.9,1.5c-0.7,0.4-1.6,0.6-2.5,0.7
			c-0.9,0.1-1.7,0.1-2.6-0.2c-0.8-0.2-1.6-0.6-2.3-1c-0.6-0.5-1.2-1.1-1.7-1.8c-0.5-0.7-0.7-1.7-0.8-2.7l-1-9.2c-0.1-1,0-2,0.2-2.9
			c0.3-0.8,0.6-1.6,1.2-2.2c0.6-0.6,1.2-1.1,1.9-1.5s1.6-0.6,2.5-0.7c0.9-0.1,1.7-0.1,2.6,0.2c0.8,0.2,1.6,0.6,2.3,1
			c0.6,0.5,1.2,1.1,1.7,1.8s0.7,1.7,0.8,2.7L79.8,17.8z M74.7,9.2c-0.1-0.9-0.5-1.7-1-2.1s-1.2-0.6-2-0.6c-0.7,0.1-1.4,0.5-1.8,1
			c-0.4,0.5-0.6,1.4-0.5,2.3l1,9.1c0.1,0.9,0.5,1.7,1,2.1c0.6,0.5,1.2,0.6,2,0.6c0.7-0.1,1.4-0.5,1.8-1c0.5-0.6,0.6-1.3,0.5-2.2
			L74.7,9.2z"/>
		<path class="st1" d="M79.8,17.8h-0.2c0.1,1,0,1.9-0.2,2.8c-0.3,0.8-0.6,1.6-1.2,2.1c-0.6,0.6-1.2,1.1-1.9,1.5
			c-0.7,0.4-1.6,0.6-2.4,0.7C73,25,72.2,25,71.4,24.8s-1.6-0.6-2.2-1c-0.6-0.5-1.2-1.1-1.7-1.8c-0.5-0.7-0.7-1.6-0.8-2.7l-1-9.2
			c-0.1-1,0-1.9,0.2-2.8c0.3-0.8,0.6-1.6,1.2-2.1c0.6-0.6,1.2-1.1,1.9-1.5c0.7-0.4,1.6-0.6,2.4-0.7c0.8-0.1,1.7-0.1,2.5,0.2
			c0.8,0.2,1.6,0.6,2.2,1c0.6,0.4,1.2,1.1,1.6,1.8c0.5,0.7,0.7,1.6,0.8,2.7l1,9.2L79.8,17.8H80l-1-9.2c-0.1-1.1-0.4-2-0.9-2.8
			s-1-1.5-1.7-1.9c-0.6-0.5-1.5-0.8-2.3-1s-1.7-0.3-2.7-0.2c-0.9,0.1-1.7,0.4-2.6,0.7c-0.8,0.4-1.5,0.9-2,1.6
			c-0.6,0.6-1,1.4-1.3,2.3c-0.3,0.9-0.4,1.8-0.3,2.9l1,9.2c0.1,1.1,0.4,2,0.9,2.8s1,1.5,1.7,1.9c0.7,0.5,1.5,0.8,2.3,1
			s1.7,0.3,2.7,0.2c0.9-0.1,1.7-0.4,2.6-0.7c0.9-0.3,1.5-0.9,2-1.6c0.6-0.6,1-1.4,1.3-2.3s0.4-1.8,0.3-2.9H79.8z M74.7,9.2h0.2
			c-0.1-0.5-0.2-0.9-0.4-1.3C74.3,7.5,74,7.2,73.8,7c-0.3-0.3-0.6-0.5-1-0.6c-0.4-0.1-0.7-0.1-1.2-0.1c-0.4,0.1-0.8,0.2-1.1,0.4
			c-0.4,0.2-0.6,0.5-0.8,0.7c-0.3,0.3-0.4,0.6-0.5,1.1c-0.1,0.4-0.1,0.8-0.1,1.3l1,9.1c0.1,0.5,0.2,0.9,0.4,1.3
			c0.2,0.4,0.5,0.6,0.7,0.9c0.3,0.3,0.6,0.5,1,0.6c0.4,0.1,0.7,0.1,1.2,0.1c0.4-0.1,0.8-0.2,1.1-0.4c0.4-0.2,0.6-0.5,0.8-0.7
			c0.3-0.3,0.4-0.6,0.5-1.1c0.1-0.4,0.1-0.8,0.1-1.3l-1-9.1L74.7,9.2h-0.2l1,9.1c0.1,0.5,0,0.8,0,1.2c-0.1,0.4-0.2,0.6-0.4,0.9
			c-0.2,0.3-0.5,0.5-0.7,0.6c-0.3,0.2-0.6,0.3-0.9,0.3s-0.7,0-1-0.1s-0.6-0.3-0.8-0.5c-0.2-0.2-0.5-0.5-0.6-0.8
			c-0.2-0.3-0.3-0.7-0.3-1.1l-1-9.1c-0.1-0.5,0-0.8,0-1.2c0.1-0.4,0.2-0.6,0.5-0.9C70.5,7.3,70.8,7.1,71,7c0.3-0.2,0.6-0.3,0.9-0.3
			s0.7,0,1,0.1s0.6,0.3,0.8,0.5c0.3,0.2,0.5,0.5,0.6,0.8C74.4,8.4,74.6,8.8,74.7,9.2L74.7,9.2z"/>
		<path class="st1" d="M90.4,8c0.1,0.7,0,1.3-0.2,1.8c-0.2,0.6-0.5,1-0.8,1.5c-0.4,0.4-0.8,0.7-1.3,0.9c-0.6,0.3-1.1,0.4-1.7,0.5
			c-0.6,0.1-1.2,0.1-1.7-0.1c-0.6-0.1-1-0.4-1.5-0.6c-0.5-0.3-0.8-0.7-1.1-1.2s-0.5-1.1-0.6-1.7l-0.4-3c-0.1-0.7,0-1.3,0.2-1.8
			c0.2-0.6,0.5-1,0.8-1.4c0.4-0.4,0.8-0.7,1.3-0.9c0.6-0.3,1.1-0.4,1.7-0.5c0.6-0.1,1.2,0,1.7,0.1c0.6,0.1,1.1,0.4,1.5,0.6
			c0.5,0.3,0.8,0.7,1.1,1.2c0.3,0.5,0.5,1.1,0.6,1.7L90.4,8z M87.1,5.5c-0.1-0.6-0.3-1-0.6-1.3c-0.3-0.3-0.7-0.4-1.2-0.3
			c-1,0.1-1.5,0.7-1.4,1.9l0.3,2.8c0.1,0.6,0.3,1,0.6,1.3c0.3,0.3,0.7,0.4,1.2,0.3c0.5-0.1,0.8-0.3,1.1-0.6c0.3-0.3,0.4-0.7,0.3-1.4
			L87.1,5.5z M90.9,23l-3.1,0.4l7.8-23L98.7,0L90.9,23z M105.5,17.2c0.1,0.7,0,1.3-0.2,1.8c-0.2,0.6-0.5,1-0.8,1.5
			c-0.4,0.4-0.8,0.7-1.3,0.9c-0.6,0.3-1.1,0.4-1.7,0.5c-0.6,0.1-1.2,0.1-1.7-0.1c-0.6-0.1-1-0.4-1.5-0.6c-0.5-0.3-0.8-0.7-1.1-1.2
			c-0.3-0.5-0.5-1.1-0.6-1.7l-0.4-3c-0.1-0.7,0-1.3,0.2-1.8c0.2-0.6,0.5-1,0.8-1.4c0.4-0.4,0.8-0.7,1.3-0.9c0.6-0.3,1.1-0.4,1.7-0.5
			c0.6-0.1,1.2,0,1.7,0.1c0.6,0.1,1.1,0.4,1.5,0.6c0.5,0.3,0.8,0.7,1.1,1.2c0.3,0.5,0.5,1.1,0.6,1.7L105.5,17.2z M102.2,14.6
			c-0.1-0.6-0.3-1-0.6-1.3c-0.3-0.3-0.7-0.4-1.2-0.3c-1,0.1-1.5,0.7-1.4,1.9l0.3,2.8c0.1,1.2,0.7,1.7,1.7,1.6
			c0.5-0.1,0.8-0.3,1.1-0.6c0.3-0.3,0.4-0.7,0.3-1.4L102.2,14.6z"/>
		<path class="st1" d="M90.4,8h-0.2c0.1,0.6,0,1.3-0.1,1.7c-0.2,0.6-0.5,0.9-0.7,1.4c-0.4,0.4-0.7,0.6-1.3,0.9
			c-0.5,0.2-1,0.4-1.6,0.5c-0.6,0.1-1.1,0-1.7-0.1c-0.6-0.1-1-0.3-1.4-0.6c-0.5-0.3-0.7-0.6-1-1.1s-0.5-1-0.6-1.7l-0.4-3
			c-0.1-0.6,0-1.3,0.1-1.7C81.7,3.7,82,3.4,82.2,3c0.4-0.4,0.7-0.6,1.3-0.9c0.5-0.3,1-0.4,1.7-0.5c0.6-0.1,1.1,0,1.7,0.1
			c0.6,0.1,1,0.3,1.5,0.6s0.7,0.6,1,1.1s0.5,1,0.6,1.7L90.4,8L90.4,8h0.2l-0.3-3c-0.1-0.7-0.3-1.4-0.6-1.8c-0.3-0.6-0.7-0.9-1.2-1.3
			c-0.5-0.3-1-0.6-1.6-0.6c-0.6-0.1-1.2-0.2-1.8-0.1s-1.2,0.3-1.7,0.5c-0.6,0.3-1,0.6-1.4,1c-0.4,0.5-0.6,0.9-0.8,1.5
			C81,4.8,80.9,5.4,81,6.1l0.4,3c0.1,0.7,0.3,1.4,0.6,1.8c0.3,0.6,0.7,0.9,1.2,1.3s1,0.6,1.6,0.6c0.6,0.1,1.2,0.2,1.8,0.1
			s1.2-0.2,1.7-0.5c0.6-0.3,1-0.6,1.4-1c0.4-0.5,0.6-0.9,0.8-1.5c0.2-0.6,0.3-1.2,0.2-1.9C90.7,8,90.4,8,90.4,8z M87.1,5.5h0.2
			c0-0.3-0.1-0.6-0.2-0.8c-0.1-0.3-0.3-0.5-0.5-0.6c-0.2-0.2-0.4-0.3-0.6-0.3c-0.2-0.1-0.5-0.1-0.7,0c-0.3,0-0.6,0.1-0.7,0.2
			c-0.2,0.1-0.3,0.2-0.5,0.3c-0.2,0.2-0.3,0.5-0.4,0.7c-0.1,0.2-0.1,0.6,0,0.9L84,8.7c0,0.3,0.1,0.6,0.2,0.8
			c0.1,0.3,0.3,0.5,0.5,0.6c0.2,0.2,0.4,0.3,0.6,0.3c0.2,0.1,0.5,0.1,0.7,0c0.3,0,0.6-0.1,0.7-0.2c0.1-0.1,0.4-0.3,0.6-0.5
			s0.3-0.5,0.3-0.6c0.1-0.3,0.1-0.6,0-0.8l-0.3-2.8H87.1h-0.2l0.3,2.8c0,0.3,0,0.6,0,0.7S87.1,9.4,87,9.5c-0.1,0.1-0.2,0.3-0.4,0.3
			C86.4,9.9,86.2,9.9,86,10c-0.2,0-0.5,0-0.6,0c-0.2,0-0.3-0.1-0.5-0.2c-0.1-0.1-0.2-0.3-0.3-0.5s-0.2-0.5-0.2-0.7l-0.3-2.8
			c0-0.3,0-0.6,0-0.7s0.1-0.3,0.1-0.4c0-0.1,0.1-0.2,0.2-0.2c0.1-0.1,0.2-0.2,0.4-0.3c0.2-0.1,0.3-0.1,0.6-0.1c0.2,0,0.5,0,0.6,0
			c0.2,0,0.3,0.1,0.5,0.2c0.1,0.1,0.2,0.3,0.3,0.5C87,4.9,87.1,5.2,87.1,5.5L87.1,5.5z M90.9,23v-0.2l-2.8,0.3l7.7-22.5l2.7-0.3
			L90.9,23L90.9,23v-0.2V23l0.2,0.1l8-23.3l-3.6,0.4l-8,23.4l3.6-0.4V23H90.9z M105.5,17.2h-0.2c0.1,0.6,0,1.3-0.1,1.7
			c-0.2,0.6-0.5,0.9-0.7,1.4c-0.4,0.4-0.7,0.6-1.3,0.9c-0.5,0.2-1,0.4-1.6,0.5c-0.6,0.1-1.1,0-1.7-0.1c-0.6-0.1-1-0.3-1.4-0.6
			c-0.5-0.3-0.7-0.6-1-1.1s-0.5-1-0.6-1.7l-0.4-3c-0.1-0.6,0-1.3,0.1-1.7c0.2-0.6,0.5-0.9,0.7-1.3c0.4-0.4,0.7-0.6,1.3-0.9
			c0.5-0.3,1-0.4,1.7-0.5c0.6-0.1,1.1,0,1.7,0.1c0.6,0.1,1,0.3,1.5,0.6s0.7,0.6,1,1.1s0.5,1,0.6,1.7L105.5,17.2L105.5,17.2h0.2
			l-0.4-3c-0.1-0.7-0.3-1.4-0.6-1.8c-0.3-0.6-0.7-0.9-1.2-1.3c-0.5-0.3-1-0.6-1.6-0.6c-0.6-0.1-1.2-0.2-1.8-0.1s-1.2,0.3-1.7,0.5
			c-0.6,0.3-1,0.6-1.4,1c-0.4,0.5-0.6,0.9-0.8,1.5C96,14,95.9,14.6,96,15.3l0.4,3c0.1,0.7,0.3,1.4,0.6,1.8c0.3,0.6,0.7,0.9,1.2,1.3
			s1,0.6,1.6,0.6c0.6,0.1,1.2,0.2,1.8,0.1s1.2-0.2,1.7-0.5c0.6-0.3,1-0.6,1.4-1c0.4-0.5,0.6-0.9,0.8-1.5c0.2-0.6,0.3-1.2,0.2-1.9
			C105.7,17.2,105.5,17.2,105.5,17.2z M102.2,14.6h0.2c0-0.3-0.1-0.6-0.2-0.8c-0.1-0.3-0.3-0.5-0.5-0.6c-0.2-0.2-0.4-0.3-0.6-0.3
			c-0.2-0.1-0.5-0.1-0.7,0c-0.3,0-0.6,0.1-0.7,0.2c-0.2,0.1-0.3,0.2-0.5,0.3c-0.2,0.2-0.3,0.5-0.4,0.7c-0.1,0.3-0.1,0.6,0,0.9
			l0.3,2.8c0,0.3,0.1,0.6,0.2,0.8c0.1,0.2,0.2,0.4,0.3,0.5s0.2,0.2,0.3,0.3c0.2,0.1,0.4,0.2,0.6,0.2s0.5,0,0.6,0
			c0.3,0,0.6-0.1,0.7-0.2c0.2-0.1,0.4-0.3,0.6-0.5s0.3-0.5,0.3-0.6c0.1-0.3,0.1-0.6,0-0.8L102.2,14.6L102.2,14.6H102l0.3,2.8
			c0,0.3,0,0.6,0,0.7c0,0.2-0.1,0.4-0.2,0.5c-0.1,0.1-0.2,0.3-0.4,0.3c-0.2,0.1-0.4,0.1-0.6,0.2c-0.3,0-0.5,0-0.6,0
			c-0.1,0-0.3-0.1-0.4-0.2c-0.2-0.1-0.3-0.3-0.4-0.5c-0.1-0.2-0.2-0.5-0.2-0.7l-0.3-2.8c0-0.3,0-0.6,0-0.7c0-0.2,0.1-0.3,0.1-0.4
			s0.1-0.2,0.2-0.2c0.1-0.1,0.2-0.2,0.4-0.3c0.2-0.1,0.3-0.1,0.6-0.1c0.2,0,0.5,0,0.6,0c0.2,0,0.3,0.1,0.5,0.2
			c0.1,0.1,0.2,0.3,0.3,0.5S102.1,14.4,102.2,14.6L102.2,14.6z"/>
		<path class="st1" d="M52.1,45.3c0.1,0.9,0,1.7-0.3,2.6c-0.3,0.7-0.7,1.4-1.3,2s-1.3,1-2.1,1.4s-1.7,0.6-2.8,0.7
			c-1.5,0.2-2.8,0.1-4-0.1c-1.2-0.3-2.3-0.7-3.3-1.7l2.1-2.7c0.6,0.6,1.4,0.9,2.2,1c0.8,0.2,1.7,0.2,2.6,0.1
			c1.1-0.1,1.9-0.5,2.5-0.9c0.6-0.5,0.7-1.1,0.6-1.8c-0.1-0.7-0.4-1.2-0.7-1.6c-0.2-0.2-0.5-0.3-0.7-0.4s-0.6-0.1-1.1-0.1l-2.3-0.1
			c-1.7-0.1-2.9-0.5-3.9-1.2c-1-0.8-1.7-2-1.7-3.6c-0.1-0.8,0-1.7,0.2-2.4s0.6-1.4,1.1-1.9c0.6-0.6,1.2-1,1.9-1.5
			c0.8-0.4,1.7-0.6,2.8-0.7c1.3-0.2,2.5-0.1,3.5,0.1c1,0.2,2,0.7,2.9,1.4l-2.1,2.6c-0.6-0.5-1.4-0.8-2-0.8c-0.7-0.1-1.4-0.1-2,0
			c-1,0.1-1.7,0.5-2.1,0.9c-0.5,0.6-0.6,1.1-0.6,1.7c0,0.3,0.1,0.5,0.2,0.7c0.1,0.2,0.3,0.5,0.5,0.6c0.2,0.2,0.5,0.3,0.8,0.4
			c0.3,0.1,0.6,0.2,1.1,0.2l2.3,0.1c0.9,0,1.7,0.1,2.2,0.3c0.6,0.2,1.1,0.5,1.6,0.7c0.6,0.5,1,0.9,1.3,1.7
			C51.8,43.7,52,44.5,52.1,45.3z"/>
		<path class="st1" d="M52.1,45.3h-0.2c0.1,0.9,0,1.7-0.3,2.4s-0.6,1.4-1.3,1.9c-0.6,0.6-1.2,1-2,1.4s-1.7,0.6-2.7,0.6
			c-1.5,0.2-2.8,0.1-3.9-0.1c-1.1-0.3-2.2-0.7-3.2-1.6l-0.2,0.2l0.2,0.1l2.1-2.7l-0.2-0.1l-0.1,0.2c0.7,0.6,1.5,0.9,2.3,1.1
			s1.7,0.2,2.7,0.1c0.6-0.1,1.1-0.2,1.5-0.4c0.5-0.2,0.8-0.4,1.1-0.6c0.3-0.3,0.5-0.6,0.6-0.9c0.1-0.4,0.2-0.7,0.1-1.1
			c0-0.4-0.1-0.7-0.3-1s-0.4-0.6-0.6-0.7c-0.3-0.2-0.5-0.3-0.7-0.4c-0.2,0-0.3-0.1-0.5-0.1s-0.4,0-0.6-0.1l-2.3-0.1
			c-0.8,0-1.6-0.1-2.1-0.3c-0.6-0.2-1.2-0.5-1.6-0.8l-0.1,0.2l0.1-0.2c-0.5-0.4-0.8-0.8-1.1-1.5c-0.3-0.6-0.5-1.3-0.6-2
			c-0.1-0.8,0-1.6,0.2-2.3s0.6-1.4,1.1-1.9c0.5-0.6,1.1-1,1.9-1.4c0.7-0.4,1.7-0.6,2.7-0.7c1.3-0.2,2.5-0.1,3.4,0.1
			c1,0.2,1.9,0.6,2.9,1.4l0.1-0.2l-0.2-0.2l-2.1,2.6l0.2,0.2l0.1-0.2c-0.7-0.6-1.5-0.8-2.2-0.9c-0.7-0.1-1.4-0.1-2,0s-1,0.2-1.4,0.4
			s-0.7,0.4-0.9,0.7c-0.3,0.3-0.4,0.6-0.5,0.9c-0.1,0.4-0.1,0.6-0.1,1c0,0.3,0.1,0.6,0.3,0.8c0.1,0.3,0.3,0.5,0.6,0.6
			c0.3,0.2,0.6,0.3,0.8,0.5c0.4,0.1,0.7,0.2,1.1,0.2l2.3,0.1c0.9,0,1.6,0.1,2.2,0.3c0.6,0.2,1.1,0.4,1.5,0.7l0.1-0.2l-0.1,0.2
			c0.6,0.4,0.9,0.9,1.3,1.6C51.8,43.7,52,44.5,52.1,45.3L52.1,45.3h0.2c-0.1-0.9-0.3-1.7-0.6-2.3s-0.8-1.3-1.4-1.7
			c-0.5-0.4-1-0.6-1.7-0.8c-0.6-0.2-1.4-0.3-2.3-0.3L44,40.1c-0.4,0-0.7-0.1-1-0.2c-0.3-0.1-0.6-0.2-0.7-0.4l-0.1,0.2l0.1-0.2
			c-0.2-0.2-0.4-0.4-0.5-0.6c-0.1-0.2-0.2-0.4-0.2-0.6c0-0.3,0-0.6,0.1-0.8c0.1-0.3,0.2-0.6,0.5-0.7c0.2-0.3,0.5-0.5,0.7-0.6
			c0.4-0.2,0.7-0.3,1.2-0.3c0.6-0.1,1.3-0.1,1.9,0c0.6,0.1,1.3,0.4,1.9,0.8l0.2,0.1l2.4-2.9l-0.2-0.2c-0.9-0.7-1.9-1.2-3-1.5
			c-1-0.3-2.2-0.3-3.6-0.1c-1,0.1-2,0.4-2.9,0.7s-1.5,0.9-2,1.5c-0.6,0.6-0.9,1.3-1.2,2s-0.3,1.6-0.2,2.5c0.1,0.8,0.3,1.6,0.6,2.2
			c0.3,0.6,0.7,1.2,1.3,1.6c0.5,0.4,1.1,0.6,1.7,0.9c0.6,0.2,1.4,0.3,2.3,0.4l2.3,0.1v-0.2V44c0.2,0,0.5,0,0.6,0.1
			c0.2,0,0.3,0.1,0.5,0.1c0.2,0.1,0.5,0.2,0.6,0.3l0.1-0.2l-0.1,0.2c0.2,0.2,0.4,0.4,0.5,0.6c0.1,0.2,0.2,0.6,0.3,0.8
			c0,0.4,0,0.6-0.1,0.9c-0.1,0.3-0.3,0.6-0.5,0.7c-0.3,0.2-0.6,0.4-0.9,0.6s-0.8,0.3-1.4,0.3c-0.9,0.1-1.7,0.1-2.5-0.1
			c-0.7-0.1-1.5-0.5-2.1-1l-0.2-0.1l-2.4,3l0.2,0.2c1.1,0.8,2.2,1.4,3.4,1.7s2.6,0.3,4,0.1c1-0.1,1.9-0.4,2.9-0.7
			c0.8-0.4,1.6-0.8,2.2-1.4c0.6-0.6,1-1.3,1.4-2c0.3-0.8,0.4-1.7,0.3-2.7L52.1,45.3z"/>
		<path class="st1" d="M67.6,39.6c0.1,0.8,0.2,1.6,0.3,2.3s0.1,1.4,0,2c0,0.6-0.2,1.3-0.4,1.8c-0.2,0.6-0.6,1.1-0.9,1.7
			c-0.6,0.7-1.3,1.4-2.1,1.8c-0.8,0.5-1.7,0.7-2.9,0.8s-2.1,0.1-2.9-0.2c-0.9-0.3-1.7-0.7-2.5-1.3c-0.6-0.5-1-0.9-1.3-1.4
			c-0.3-0.6-0.6-1.1-0.7-1.7c-0.2-0.6-0.3-1.3-0.5-2c-0.1-0.7-0.2-1.5-0.3-2.3s-0.2-1.6-0.3-2.3s-0.1-1.4,0-2c0-0.6,0.2-1.3,0.4-1.8
			s0.6-1.1,0.9-1.7c0.6-0.7,1.3-1.4,2.1-1.8c0.8-0.5,1.7-0.7,2.9-0.8c1.1-0.1,2.1-0.1,2.9,0.2c0.8,0.3,1.7,0.7,2.5,1.3
			c0.6,0.5,1,0.9,1.3,1.4c0.3,0.6,0.6,1.1,0.7,1.7c0.2,0.6,0.4,1.3,0.5,2C67.4,38,67.5,38.8,67.6,39.6z M63.8,40.1
			c-0.1-0.9-0.2-1.7-0.3-2.3s-0.2-1.1-0.3-1.5s-0.3-0.7-0.4-0.9c-0.2-0.2-0.4-0.5-0.6-0.6c-0.3-0.3-0.6-0.5-1.1-0.6
			c-0.5-0.2-0.9-0.2-1.4-0.1c-0.6,0.1-1,0.2-1.4,0.5s-0.7,0.6-0.9,0.8s-0.3,0.5-0.4,0.7s-0.2,0.6-0.2,1s0,0.9,0,1.5s0.1,1.4,0.2,2.3
			c0.1,0.9,0.2,1.7,0.3,2.3s0.2,1.1,0.3,1.5s0.3,0.7,0.4,0.9c0.2,0.2,0.3,0.5,0.6,0.6c0.3,0.3,0.6,0.5,1.1,0.6
			c0.5,0.2,0.9,0.2,1.5,0.1s1-0.2,1.4-0.5s0.6-0.6,0.9-0.8c0.2-0.2,0.3-0.5,0.4-0.7c0.1-0.3,0.2-0.6,0.2-1s0-0.9,0-1.5
			C64,41.7,63.9,41,63.8,40.1z"/>
		<path class="st1" d="M67.6,39.6h-0.2c0.1,0.8,0.2,1.6,0.3,2.3s0.1,1.4,0,2c0,0.6-0.2,1.2-0.4,1.7c-0.2,0.6-0.5,1.1-0.9,1.6
			c-0.6,0.7-1.3,1.3-2,1.7c-0.7,0.5-1.7,0.7-2.8,0.8s-2,0.1-2.9-0.2c-0.8-0.3-1.7-0.6-2.4-1.3c-0.6-0.5-0.9-0.8-1.2-1.4
			c-0.3-0.5-0.6-1-0.7-1.7c-0.2-0.6-0.3-1.3-0.4-1.9c-0.1-0.7-0.2-1.5-0.3-2.3s-0.2-1.6-0.3-2.3s-0.1-1.4,0-2c0-0.6,0.2-1.2,0.4-1.7
			c0.2-0.6,0.5-1.1,0.9-1.6c0.6-0.7,1.3-1.3,2-1.7c0.7-0.5,1.7-0.7,2.8-0.8s2-0.1,2.9,0.2c0.8,0.3,1.7,0.6,2.4,1.3
			c0.6,0.5,0.9,0.8,1.2,1.4c0.3,0.5,0.6,1,0.7,1.7c0.1,0.7,0.4,1.3,0.5,1.9C67.3,38,67.4,38.8,67.6,39.6L67.6,39.6h0.2
			c-0.1-0.8-0.2-1.6-0.3-2.3s-0.3-1.4-0.5-2s-0.5-1.2-0.8-1.7c-0.4-0.6-0.8-1-1.4-1.5c-0.7-0.6-1.7-1.1-2.5-1.4
			c-0.9-0.3-1.9-0.4-3-0.2c-1.1,0.1-2.1,0.5-2.9,0.9c-0.8,0.5-1.6,1.1-2.2,1.8c-0.5,0.6-0.7,1.1-1,1.7c-0.2,0.6-0.4,1.2-0.4,1.8
			s0,1.4,0,2c0.1,0.7,0.2,1.5,0.3,2.3s0.2,1.6,0.3,2.3s0.3,1.4,0.5,2s0.5,1.2,0.7,1.7c0.4,0.6,0.8,1,1.4,1.5
			c0.7,0.6,1.7,1.1,2.6,1.4c0.9,0.3,1.9,0.4,3,0.2c1.1-0.1,2.1-0.5,2.9-0.9c0.8-0.5,1.6-1.1,2.1-1.8c0.5-0.6,0.7-1.1,1-1.7
			c0.2-0.6,0.4-1.2,0.4-1.8c0.1-0.6,0-1.4,0-2C67.8,41.2,67.7,40.4,67.6,39.6L67.6,39.6z M63.8,40.1H64c-0.1-0.9-0.2-1.7-0.3-2.3
			s-0.2-1.1-0.4-1.5c-0.1-0.4-0.3-0.7-0.5-1s-0.4-0.5-0.6-0.6L62,34.9l0.2-0.2c-0.4-0.3-0.7-0.6-1.2-0.6c-0.5-0.2-0.9-0.2-1.5-0.1
			c-0.6,0.1-1,0.2-1.5,0.5c-0.4,0.3-0.7,0.6-1,0.9l0.2,0.1L57,35.4c-0.2,0.3-0.3,0.5-0.4,0.7s-0.2,0.6-0.2,1c0,0.5,0,0.9,0,1.6
			c0,0.6,0.1,1.4,0.2,2.3c0.1,0.9,0.2,1.7,0.3,2.3s0.2,1.1,0.4,1.5c0.1,0.4,0.3,0.7,0.5,1s0.4,0.5,0.6,0.6l0.2-0.2l-0.2,0.2
			c0.4,0.3,0.7,0.6,1.2,0.6c0.5,0.2,1,0.2,1.6,0.1c0.6-0.1,1-0.2,1.5-0.5c0.4-0.3,0.7-0.6,1-0.9l-0.2-0.1l0.2,0.1
			c0.2-0.3,0.3-0.5,0.4-0.7c0.1-0.3,0.2-0.6,0.2-1c0-0.5,0-0.9,0-1.6s-0.1-1.4-0.2-2.3H63.8h-0.2c0.1,0.9,0.2,1.7,0.2,2.3
			s0.1,1.1,0,1.5c0,0.4-0.1,0.7-0.2,0.9c-0.1,0.3-0.2,0.5-0.4,0.6c-0.2,0.3-0.5,0.6-0.8,0.8c-0.4,0.2-0.7,0.4-1.3,0.4
			c-0.5,0.1-0.9,0-1.3-0.1s-0.7-0.4-1-0.6c-0.2-0.2-0.4-0.4-0.5-0.6c-0.1-0.2-0.3-0.5-0.4-0.8c-0.1-0.4-0.2-0.8-0.3-1.5
			c-0.1-0.6-0.2-1.4-0.3-2.2c-0.1-0.9-0.2-1.7-0.2-2.3s-0.1-1.1,0-1.5c0-0.4,0.1-0.7,0.2-0.9c0.1-0.3,0.2-0.5,0.4-0.6
			c0.2-0.3,0.5-0.6,0.8-0.8c0.4-0.2,0.7-0.4,1.3-0.4c0.5-0.1,0.9,0,1.3,0.1s0.7,0.4,1,0.6c0.2,0.2,0.4,0.4,0.5,0.6
			c0.1,0.2,0.3,0.5,0.4,0.8c0.1,0.4,0.2,0.8,0.3,1.5c0.1,0.6,0.2,1.4,0.3,2.2H63.8z"/>
		<polygon class="st1" points="71.3,48.9 69.2,29.8 72.9,29.3 74.7,45.1 83.4,44.1 83.7,47.4 		"/>
		<polygon class="st1" points="71.3,48.9 71.6,48.8 69.5,29.9 72.7,29.6 74.5,45.4 83.2,44.4 83.5,47.2 71.3,48.6 71.3,48.9 
			71.6,48.8 71.3,48.9 71.4,49.1 84,47.7 83.6,43.9 74.9,44.8 73.1,29.1 68.9,29.6 71.1,49.1 71.4,49.1 		"/>
		
			<rect x="77.4" y="35.6" transform="matrix(-0.1126 -0.9936 0.9936 -0.1126 59.5343 128.2379)" class="st1" width="19.2" height="3.8"/>
		<polygon class="st1" points="86.2,47.1 86.5,47.1 84.3,28.3 87.6,27.9 89.7,46.6 86.2,47 86.2,47.1 86.5,47.1 86.2,47.1 
			86.2,47.4 90.2,47 88,27.5 83.8,27.9 86,47.4 86.2,47.4 		"/>
		<path class="st1" d="M106.4,37.3c0.1,0.7,0.1,1.4,0.1,2s-0.2,1.3-0.4,1.9c-0.2,0.6-0.6,1.3-1,1.8c-0.6,0.7-1.3,1.2-2.1,1.7
			c-0.8,0.4-1.7,0.6-2.8,0.7l-6.9,0.7l-2.1-19l6.9-0.7c1-0.1,1.9-0.1,2.9,0.1c0.9,0.2,1.7,0.6,2.4,1.1c0.6,0.5,1.1,1,1.4,1.6
			s0.6,1.2,0.7,1.7c0.1,0.5,0.3,1.3,0.4,2L106.4,37.3z M102.4,35.6c-0.1-0.7-0.2-1.4-0.3-1.8c-0.1-0.6-0.2-1-0.3-1.4
			s-0.2-0.7-0.4-0.9c-0.1-0.3-0.3-0.5-0.6-0.6c-0.4-0.4-0.8-0.6-1.3-0.7c-0.5-0.2-1-0.2-1.7-0.1l-2.9,0.3l1.4,12.4l2.9-0.3
			c0.6-0.1,1.2-0.3,1.6-0.5c0.5-0.3,0.7-0.6,1-1c0.3-0.5,0.5-1.1,0.5-1.8C102.6,38.1,102.6,37,102.4,35.6z"/>
		<path class="st1" d="M106.4,37.3h-0.2c0.1,0.6,0.1,1.4,0.1,2s-0.2,1.3-0.4,1.9c-0.2,0.6-0.6,1.2-1,1.7c-0.6,0.6-1.2,1.2-2,1.6
			c-0.8,0.4-1.7,0.6-2.7,0.7l-6.7,0.7l-2.1-18.7l6.7-0.7c1-0.1,1.9-0.1,2.8,0.1c0.8,0.2,1.7,0.6,2.3,1.1s1,0.9,1.4,1.5
			c0.4,0.6,0.6,1.1,0.7,1.7c0.1,0.6,0.3,1.3,0.4,1.9l0.5,4.2L106.4,37.3h0.2l-0.5-4.2c-0.1-0.7-0.2-1.4-0.4-2
			c-0.2-0.6-0.5-1.3-0.8-1.8c-0.4-0.6-0.8-1.1-1.5-1.7s-1.6-1-2.5-1.2c-0.9-0.2-1.9-0.3-2.9-0.1l-7.1,0.8l2.2,19.5l7.1-0.8
			c1-0.1,1.9-0.4,2.9-0.7c0.8-0.4,1.6-1,2.2-1.7c0.5-0.6,0.8-1.3,1-1.9c0.2-0.6,0.4-1.3,0.4-2c0-0.6,0-1.4-0.1-2.1L106.4,37.3
			L106.4,37.3z M102.4,35.6h0.2c-0.1-0.7-0.2-1.4-0.3-1.8c-0.1-0.6-0.2-1-0.3-1.4s-0.2-0.7-0.4-1c-0.2-0.3-0.4-0.6-0.6-0.7
			c-0.4-0.4-0.8-0.6-1.4-0.8c-0.6-0.2-1.1-0.2-1.7-0.1l-3,0.4l1.5,12.9l3-0.4c0.6-0.1,1.2-0.3,1.7-0.6s0.8-0.6,1.1-1.1
			c0.2-0.3,0.3-0.6,0.4-0.9c0.1-0.4,0.1-0.7,0.1-1.1C102.7,38,102.6,36.9,102.4,35.6L102.4,35.6h-0.2c0.2,1.5,0.3,2.6,0.2,3.3
			c0,0.4,0,0.7-0.1,1c-0.1,0.3-0.2,0.6-0.3,0.7l0.2,0.1l-0.2-0.1c-0.3,0.4-0.6,0.7-1,0.9c-0.4,0.2-0.9,0.4-1.5,0.5l-2.6,0.3
			l-1.4-12.1l2.6-0.3c0.6-0.1,1.1,0,1.6,0.1s0.8,0.4,1.2,0.7c0.2,0.2,0.4,0.4,0.5,0.6c0.1,0.3,0.3,0.6,0.4,0.9
			c0.1,0.4,0.2,0.8,0.3,1.4C102.1,34.3,102.2,34.8,102.4,35.6L102.4,35.6z"/>
		<path class="st1" d="M53.8-2l-1.1-1.1l-2.6,1.4l0.3,1.6l-1.5,0.8L47.6-8l1.1-0.6l6.6,5.9L53.8-2z M49.2-6.2l0.5,3.1l1.8-1
			L49.2-6.2z"/>
		<path class="st1" d="M53.8-2L53.8-2l-1.1-1.1L50-1.7l0.3,1.6l-1.4,0.7L47.7-8l1.1-0.6l6.5,5.8L53.8-2l1.6-0.8l-6.6-6l-1.2,0.6
			l1.3,8.8l1.6-0.8l-0.3-1.6l2.6-1.4L53.8-2z M49.2-6.2L49.2-6.2L49.7-3l1.9-1L49.2-6.2L49.2-6.2L51.4-4l-1.7,0.9L49.2-6.2z"/>
		<polygon class="st1" points="56,-3 53.3,-10.8 54.8,-11.4 57,-4.8 60.6,-6.1 61,-4.7 		"/>
		<polygon class="st1" points="56,-3 56,-3 53.3,-10.8 54.8,-11.3 57,-4.8 60.6,-6 61,-4.7 55.9,-3 56,-3 56,-2.9 61.1,-4.6 
			60.6,-6.1 57.1,-4.9 54.9,-11.5 53.2,-10.9 55.9,-2.9 56,-2.9 		"/>
		<polygon class="st1" points="68.1,-5.9 66.7,-5.8 64.4,-10.4 63.7,-5.2 62.4,-5 58.9,-12.9 60.6,-13.1 62.7,-8.1 63.3,-13.6 
			64.5,-13.8 66.8,-8.9 67.3,-14.2 69,-14.5 		"/>
		<polygon class="st1" points="68.1,-5.9 68,-5.9 66.7,-5.8 64.4,-10.6 63.7,-5.3 62.4,-5.1 58.9,-12.8 60.6,-13.1 62.7,-8.1 
			63.3,-13.6 64.5,-13.8 66.9,-8.7 67.4,-14.2 68.9,-14.4 68,-5.9 68.1,-5.9 68,-5.9 68.1,-5.9 69,-14.5 67.3,-14.2 66.8,-9 
			64.5,-13.8 63.3,-13.7 62.6,-8.3 60.6,-13.2 58.8,-12.9 62.3,-5 63.8,-5.2 64.4,-10.4 66.7,-5.7 68.1,-5.8 		"/>
		<path class="st1" d="M75-5.8l-0.5-1.5l-2.9-0.1L71-5.9L69.4-6l3.3-8.2H74l2.8,8.4C76.8-5.8,75-5.8,75-5.8z M73.3-11.8l-1.2,2.9
			l2,0.1L73.3-11.8z"/>
		<path class="st1" d="M75-5.8L75-5.8l-0.4-1.6l-3-0.1L71-6l-1.6-0.1l3.3-8.1h1.2l2.8,8.4L75-5.8l1.7,0.1l-2.8-8.5h-1.3l-3.3,8.3
			L71-5.8l0.6-1.5l2.9,0.1L75-5.8z M73.3-11.8L73.3-11.8l-1.2,3l2.2,0.1L73.3-11.8L73.3-11.8l0.8,3l-1.9-0.1L73.3-11.8z"/>
		<polygon class="st1" points="80.3,-8.5 79.7,-5.2 78.1,-5.5 78.8,-8.8 77.1,-14.1 78.9,-13.8 79.8,-10.3 81.9,-13.2 83.6,-12.9 		
			"/>
		<polygon class="st1" points="80.3,-8.5 80.2,-8.6 79.7,-5.2 78.2,-5.5 78.8,-8.9 77.2,-14 78.9,-13.8 79.8,-10.2 81.9,-13.2 
			83.6,-12.9 80.2,-8.6 80.3,-8.5 83.7,-12.9 81.9,-13.3 79.8,-10.4 78.9,-13.8 77.1,-14.1 78.7,-8.8 78.1,-5.5 79.8,-5.1 		"/>
		<path class="st1" d="M88.2-5.3c-0.1,0.4-0.3,0.7-0.6,0.9c-0.3,0.3-0.6,0.5-0.8,0.6c-0.4,0.1-0.6,0.2-1.1,0.2
			c-0.4,0-0.8-0.1-1.2-0.2c-0.6-0.2-1.1-0.5-1.6-0.7c-0.5-0.3-0.7-0.7-1-1.2l1.3-0.6c0.2,0.4,0.4,0.6,0.6,0.8c0.3,0.2,0.6,0.4,1,0.5
			c0.5,0.2,0.8,0.2,1.1,0.1c0.3-0.1,0.5-0.3,0.6-0.6c0.1-0.3,0.1-0.6,0-0.7c-0.1-0.1-0.1-0.2-0.2-0.3c-0.1-0.1-0.2-0.2-0.4-0.3
			L85-7.3c-0.6-0.3-1.1-0.7-1.3-1.2c-0.3-0.5-0.3-1.1-0.1-1.7c0.1-0.4,0.3-0.6,0.6-0.9c0.2-0.3,0.5-0.5,0.8-0.6s0.6-0.2,1-0.2
			c0.4,0,0.8,0.1,1.2,0.2c0.6,0.2,1,0.4,1.4,0.6c0.4,0.3,0.6,0.6,0.9,1.1l-1.2,0.6c-0.2-0.3-0.4-0.6-0.6-0.7
			c-0.3-0.2-0.6-0.3-0.8-0.4c-0.4-0.1-0.7-0.2-1,0c-0.3,0.1-0.5,0.4-0.6,0.6c0,0.1-0.1,0.2,0,0.3c0,0.1,0,0.2,0.1,0.4
			c0.1,0.1,0.1,0.2,0.3,0.3c0.1,0.1,0.3,0.2,0.4,0.3L87-8.1c0.4,0.2,0.6,0.4,0.8,0.6c0.2,0.2,0.4,0.4,0.5,0.6
			c0.2,0.3,0.2,0.6,0.2,0.9C88.4-5.9,88.4-5.7,88.2-5.3z"/>
		<path class="st1" d="M88.2-5.3L88.2-5.3c-0.2,0.4-0.4,0.6-0.6,0.9c-0.3,0.3-0.6,0.5-0.8,0.6c-0.2,0.1-0.4,0.1-0.6,0.1
			s-0.3,0-0.5,0c-0.4,0-0.8-0.1-1.2-0.2c-0.6-0.2-1.1-0.5-1.5-0.7c-0.4-0.3-0.7-0.7-1-1.2l1.3-0.6C83.5-6,83.7-5.8,84-5.6
			c0.3,0.2,0.6,0.4,1,0.5c0.4,0.1,0.6,0.2,0.9,0.2c0.1,0,0.1,0,0.2,0c0.2,0,0.3-0.1,0.4-0.2c0.1-0.1,0.2-0.3,0.3-0.4
			c0.1-0.2,0.1-0.4,0.1-0.5s0-0.2-0.1-0.3c-0.1-0.1-0.1-0.2-0.2-0.3c-0.1-0.1-0.2-0.2-0.4-0.3l-0.9-0.5c-0.6-0.3-1.1-0.7-1.3-1.1
			c-0.1-0.2-0.2-0.4-0.2-0.6c0-0.4,0-0.7,0.2-1.1c0.1-0.4,0.3-0.6,0.5-0.9s0.5-0.5,0.7-0.6s0.5-0.2,0.7-0.2c0.1,0,0.2,0,0.3,0
			c0.4,0,0.7,0.1,1.2,0.2c0.6,0.2,1,0.4,1.4,0.6c0.4,0.3,0.6,0.6,0.8,1.1l-1.3,0.6c-0.2-0.4-0.4-0.6-0.6-0.7
			c-0.3-0.2-0.6-0.3-0.8-0.4c-0.3-0.1-0.6-0.1-0.7-0.1c-0.1,0-0.2,0-0.3,0.1c-0.3,0.1-0.5,0.4-0.6,0.6c0,0.1-0.1,0.2-0.1,0.4
			c0,0,0,0,0,0.1s0,0.2,0.1,0.3c0.1,0.1,0.2,0.2,0.3,0.3c0.1,0.1,0.3,0.2,0.4,0.3L86.9-8c0.4,0.2,0.6,0.4,0.8,0.6
			c0.2,0.2,0.4,0.4,0.5,0.6c0.1,0.2,0.2,0.5,0.2,0.6s0,0.1,0,0.2S88.3-5.7,88.2-5.3c0.2-0.4,0.2-0.6,0.2-1c0-0.1,0-0.2,0-0.2
			c0-0.3-0.1-0.5-0.2-0.6c-0.1-0.1-0.3-0.5-0.5-0.6c-0.2-0.2-0.5-0.4-0.8-0.6L86-8.8c-0.2-0.1-0.3-0.2-0.4-0.3
			c-0.1-0.1-0.2-0.2-0.3-0.3c0-0.1-0.1-0.2-0.1-0.3c0,0,0,0,0-0.1s0-0.2,0-0.3c0.1-0.3,0.3-0.5,0.6-0.6c0.1,0,0.2-0.1,0.3-0.1
			c0.2,0,0.5,0,0.7,0.1c0.3,0.1,0.6,0.2,0.7,0.4c0.3,0.2,0.5,0.4,0.6,0.7l1.4-0.6c-0.3-0.5-0.6-0.8-0.9-1.1
			c-0.4-0.3-0.8-0.6-1.4-0.7c-0.3,0-0.7,0-1.1,0c-0.1,0-0.2,0-0.3,0c-0.3,0-0.5,0.1-0.7,0.2c-0.3,0.1-0.6,0.4-0.8,0.6
			c-0.2,0.3-0.4,0.6-0.6,0.9c-0.1,0.4-0.2,0.7-0.2,1.1c0,0.2,0.1,0.5,0.2,0.6C84-8.1,84.3-7.8,85-7.4l0.9,0.5
			c0.2,0.1,0.3,0.2,0.4,0.3c0.1,0.1,0.2,0.2,0.2,0.3s0.1,0.2,0.1,0.3s0,0.3-0.1,0.5c-0.1,0.2-0.1,0.3-0.2,0.4
			c-0.1,0.1-0.2,0.2-0.4,0.2c-0.1,0-0.1,0-0.2,0c-0.3,0-0.6,0-0.9-0.1s-0.7-0.3-1-0.5S83.2-6,83.2-6.3l-1.4,0.7
			c0.3,0.6,0.6,0.9,1,1.3c0.5,0.3,0.9,0.6,1.6,0.7c0.5,0.2,0.8,0.2,1.2,0.2c0.2,0,0.3,0,0.5,0s0.5-0.1,0.6-0.2
			c0.4-0.1,0.6-0.3,0.9-0.6C88-4.6,88.2-4.8,88.2-5.3z"/>
		<polygon class="st1" points="50.3,64.2 51.9,61.4 49.7,60.2 48.1,63 46.9,62.2 50.5,55.6 51.8,56.3 50.3,59 52.6,60.3 54.1,57.5 
			55.4,58.3 51.6,64.9 		"/>
		<path class="st1" d="M57.6,67.1v-1.4L55,64.9L54.2,66l-1.5-0.5l5.1-6.3l1.1,0.4l0.2,8.1L57.6,67.1z M57.6,61.5l-1.8,2.3l1.7,0.6
			L57.6,61.5z"/>
		<path class="st1" d="M64.3,68.5l-1-3.2l-1-0.2L61.8,68l-1.5-0.3l1.2-7.5l2.9,0.5c0.4,0.1,0.7,0.2,1,0.4s0.6,0.4,0.6,0.6
			c0.2,0.3,0.3,0.6,0.4,0.8c0.1,0.3,0.1,0.6,0,0.9c0,0.3-0.1,0.5-0.2,0.7c-0.1,0.2-0.3,0.4-0.4,0.6c-0.2,0.2-0.3,0.3-0.5,0.4
			s-0.4,0.2-0.6,0.2l1.2,3.5L64.3,68.5z M65.1,63.2c0.1-0.3,0-0.6-0.2-0.7c-0.2-0.2-0.4-0.4-0.7-0.4l-1.4-0.2l-0.3,1.9l1.4,0.2
			c0.4,0.1,0.6,0,0.8-0.2C64.9,63.8,65,63.5,65.1,63.2z"/>
		<path class="st1" d="M73.3,65.8c0,0.3,0,0.6-0.1,0.8c0,0.3-0.1,0.6-0.2,0.7c-0.1,0.3-0.3,0.5-0.5,0.6c-0.3,0.3-0.6,0.5-0.9,0.6
			s-0.7,0.2-1.1,0.2h-2.8v-7.5h2.8c0.4,0,0.7,0.1,1.1,0.2c0.4,0.1,0.6,0.3,0.9,0.6c0.2,0.2,0.4,0.5,0.5,0.6c0.1,0.3,0.2,0.5,0.2,0.7
			s0.1,0.6,0.1,0.8V65.8z M71.8,65c0-0.3,0-0.6,0-0.7c0-0.2,0-0.4,0-0.6s-0.1-0.3-0.1-0.4s-0.1-0.2-0.2-0.3
			c-0.1-0.2-0.3-0.3-0.5-0.4s-0.4-0.1-0.6-0.1h-1.1v5h1.1c0.3,0,0.5,0,0.6-0.1c0.1-0.1,0.4-0.2,0.5-0.4c0.1-0.2,0.2-0.4,0.3-0.7
			C71.8,66,71.8,65.5,71.8,65z"/>
		<polygon class="st1" points="81.9,67.6 80.7,67.8 78.4,63.5 77.9,68.3 76.7,68.6 73.3,61.5 74.8,61.2 76.8,65.7 77.3,60.8 
			78.4,60.6 80.7,65 81,60 82.5,59.8 		"/>
		<path class="st1" d="M89.1,60.9c0.1,0.3,0.3,0.6,0.4,0.8c0.1,0.3,0.2,0.6,0.2,0.7c0.1,0.3,0.1,0.5,0.1,0.7s-0.1,0.5-0.2,0.7
			c-0.2,0.4-0.4,0.6-0.6,0.9c-0.3,0.3-0.6,0.5-1,0.6c-0.4,0.2-0.8,0.3-1.1,0.3c-0.4,0-0.7-0.1-1.1-0.3c-0.3-0.1-0.5-0.3-0.6-0.4
			c-0.2-0.2-0.4-0.4-0.5-0.6c-0.1-0.2-0.3-0.5-0.4-0.7c-0.1-0.3-0.3-0.6-0.4-0.8c-0.1-0.3-0.3-0.6-0.4-0.8c-0.1-0.3-0.2-0.6-0.3-0.7
			c-0.1-0.3-0.1-0.5-0.1-0.7s0.1-0.5,0.2-0.7c0.2-0.4,0.4-0.6,0.6-0.9c0.3-0.3,0.6-0.5,1-0.6c0.4-0.2,0.7-0.3,1.1-0.3
			c0.4,0,0.7,0.1,1.1,0.3c0.3,0.1,0.5,0.3,0.6,0.4c0.2,0.2,0.4,0.4,0.5,0.6c0.1,0.2,0.3,0.5,0.4,0.7C88.8,60.4,88.9,60.7,89.1,60.9z
			 M87.7,61.5c-0.1-0.4-0.3-0.6-0.4-0.8c-0.1-0.2-0.2-0.4-0.3-0.6c-0.1-0.1-0.2-0.3-0.3-0.3c-0.1-0.1-0.2-0.1-0.3-0.2
			c-0.2-0.1-0.3-0.1-0.5-0.1s-0.4,0-0.6,0.1s-0.4,0.2-0.5,0.3c-0.1,0.1-0.2,0.3-0.3,0.5c0,0.1-0.1,0.2-0.1,0.3s0,0.3,0,0.4
			c0,0.2,0.1,0.4,0.2,0.6c0.1,0.2,0.2,0.5,0.4,0.8c0.1,0.4,0.3,0.6,0.4,0.8c0.1,0.2,0.2,0.4,0.3,0.6c0.1,0.1,0.2,0.3,0.3,0.3
			c0.1,0.1,0.2,0.1,0.3,0.2c0.2,0.1,0.3,0.1,0.5,0.1s0.4,0,0.6-0.1s0.4-0.2,0.5-0.3c0.1-0.1,0.2-0.3,0.3-0.5c0-0.1,0.1-0.2,0.1-0.3
			s0-0.3,0-0.4c0-0.2-0.1-0.4-0.2-0.6C88,62.1,87.8,61.9,87.7,61.5z"/>
		<path class="st1" d="M94.7,57.6c0.2,0.3,0.4,0.6,0.5,0.8c0.2,0.3,0.3,0.5,0.4,0.7c0.1,0.3,0.2,0.5,0.2,0.7s0,0.5-0.1,0.7
			c-0.1,0.4-0.3,0.7-0.5,1s-0.5,0.6-0.8,0.7c-0.4,0.2-0.7,0.4-1.1,0.4c-0.4,0.1-0.7,0-1.1-0.1c-0.3-0.1-0.5-0.2-0.7-0.3
			s-0.4-0.3-0.6-0.5s-0.4-0.4-0.5-0.6c-0.2-0.3-0.3-0.5-0.5-0.7s-0.4-0.6-0.5-0.8c-0.2-0.3-0.3-0.5-0.4-0.7
			c-0.1-0.3-0.2-0.5-0.2-0.7c0-0.3,0-0.5,0.1-0.7c0.1-0.4,0.3-0.7,0.5-1s0.5-0.6,0.8-0.7c0.4-0.2,0.7-0.4,1.1-0.4
			c0.4-0.1,0.7,0,1.1,0.1c0.3,0.1,0.5,0.2,0.7,0.3s0.4,0.3,0.6,0.5s0.4,0.4,0.5,0.6C94.4,57.1,94.6,57.4,94.7,57.6z M93.5,58.4
			c-0.2-0.3-0.4-0.6-0.5-0.7c-0.1-0.2-0.3-0.4-0.4-0.5c-0.1-0.1-0.2-0.2-0.3-0.3s-0.2-0.1-0.3-0.1c-0.2-0.1-0.3-0.1-0.5,0
			c-0.2,0-0.4,0.1-0.6,0.2c-0.2,0.1-0.3,0.3-0.5,0.4c-0.1,0.2-0.2,0.3-0.2,0.5c0,0.1,0,0.2,0,0.3s0,0.3,0.1,0.4
			c0.1,0.2,0.2,0.4,0.3,0.6s0.3,0.5,0.5,0.7c0.2,0.3,0.4,0.6,0.5,0.7c0.1,0.2,0.3,0.4,0.4,0.5c0.1,0.1,0.2,0.2,0.3,0.3
			c0.1,0.1,0.2,0.1,0.3,0.1c0.2,0.1,0.3,0.1,0.5,0c0.2,0,0.4-0.1,0.6-0.2c0.2-0.1,0.3-0.3,0.4-0.4c0.1-0.2,0.2-0.3,0.2-0.5
			c0-0.1,0-0.2,0-0.3s0-0.3-0.1-0.4c-0.1-0.2-0.2-0.4-0.3-0.6C93.8,59,93.7,58.7,93.5,58.4z"/>
		<path class="st1" d="M100.4,53.9c0.2,0.2,0.4,0.5,0.5,0.6c0.2,0.2,0.3,0.5,0.4,0.7c0.1,0.3,0.1,0.6,0.1,0.8c0,0.4-0.1,0.6-0.3,1
			c-0.2,0.3-0.5,0.6-0.7,0.8l-2,1.8l-5-5.7l2-1.8c0.3-0.3,0.6-0.5,0.9-0.6c0.4-0.2,0.6-0.2,1-0.2c0.3,0,0.6,0.1,0.8,0.2
			c0.3,0.1,0.5,0.3,0.6,0.4c0.2,0.2,0.4,0.4,0.6,0.6L100.4,53.9z M98.7,54.2c-0.2-0.2-0.4-0.4-0.5-0.6c-0.2-0.2-0.3-0.3-0.4-0.4
			c-0.1-0.1-0.2-0.2-0.4-0.3c-0.1-0.1-0.2-0.1-0.3-0.1c-0.2,0-0.4,0-0.6,0c-0.2,0.1-0.4,0.2-0.6,0.4L95.3,54l3.2,3.7l0.8-0.7
			c0.2-0.2,0.4-0.4,0.4-0.6c0.1-0.2,0.1-0.4,0.1-0.6s-0.1-0.5-0.3-0.7C99.4,55,99.1,54.7,98.7,54.2z"/>
	</g>
	<g id="reflections">
	</g>
</g>
</svg>
